<svg xmlns="http://www.w3.org/2000/svg" xmlns:xlink="http://www.w3.org/1999/xlink" width="233" zoomAndPan="magnify" viewBox="0 0 174.75 34.499999" height="46" preserveAspectRatio="xMidYMid meet" version="1.0"><defs><g/></defs><g fill="#ffffff" fill-opacity="1"><g transform="translate(87.41244, 24.217351)"><g><path d="M 6.253906 0.3125 C 7.808594 0.3125 9.117188 -0.207031 10.09375 -1.101562 L 10.488281 0 L 13.355469 0 L 13.355469 -15.371094 L 9.367188 -15.371094 L 9.367188 -10.425781 C 8.496094 -10.988281 7.4375 -11.300781 6.253906 -11.300781 C 2.949219 -11.300781 0.644531 -8.910156 0.644531 -5.503906 C 0.644531 -2.054688 2.949219 0.3125 6.253906 0.3125 Z M 4.546875 -5.503906 C 4.546875 -6.957031 5.566406 -7.996094 7.042969 -7.996094 C 8.496094 -7.996094 9.511719 -6.957031 9.511719 -5.503906 C 9.511719 -4.03125 8.496094 -2.992188 7.042969 -2.992188 C 5.566406 -2.992188 4.546875 -4.03125 4.546875 -5.503906 Z M 4.546875 -5.503906 "/></g></g></g><g fill="#ffffff" fill-opacity="1"><g transform="translate(102.156896, 24.217351)"><g><path d="M 6.855469 0.3125 C 9.699219 0.3125 11.882812 -1.101562 12.855469 -3.550781 L 8.992188 -3.550781 C 8.558594 -3.03125 7.789062 -2.699219 6.9375 -2.699219 C 5.816406 -2.699219 4.882812 -3.300781 4.589844 -4.507812 L 13.066406 -4.507812 C 13.273438 -8.597656 10.800781 -11.300781 6.875 -11.300781 C 3.199219 -11.300781 0.644531 -8.929688 0.644531 -5.503906 C 0.644531 -2.054688 3.179688 0.3125 6.855469 0.3125 Z M 4.609375 -6.667969 C 4.945312 -7.726562 5.816406 -8.308594 6.917969 -8.308594 C 8.121094 -8.308594 8.929688 -7.683594 9.265625 -6.667969 Z M 4.609375 -6.667969 "/></g></g></g><g fill="#ffffff" fill-opacity="1"><g transform="translate(115.842241, 24.217351)"><g><path d="M 4.527344 0 L 8.578125 0 L 13.023438 -10.988281 L 8.683594 -10.988281 L 7.5 -7.351562 L 6.5625 -4.527344 L 5.628906 -7.351562 L 4.464844 -10.988281 L 0.105469 -10.988281 Z M 4.527344 0 "/></g></g></g><g fill="#8c52ff" fill-opacity="1"><g transform="translate(128.962982, 24.217351)"><g><path d="M 11.113281 -1.476562 L 11.113281 -5.566406 L 7.144531 -6.792969 L 8.871094 -7.3125 L 11.113281 -8.015625 L 11.113281 -12.089844 L 1.515625 -8.289062 L 1.515625 -5.296875 Z M 11.113281 -1.476562 "/></g></g></g><g fill="#8c52ff" fill-opacity="1"><g transform="translate(141.58922, 24.217351)"><g><path d="M 1.476562 1.328125 L 5.316406 1.328125 L 10.925781 -15.867188 L 7.0625 -15.867188 Z M 1.476562 1.328125 "/></g></g></g><g fill="#8c52ff" fill-opacity="1"><g transform="translate(153.987024, 24.217351)"><g><path d="M 1.515625 -1.476562 L 11.113281 -5.296875 L 11.113281 -8.289062 L 1.515625 -12.089844 L 1.515625 -8.015625 L 3.757812 -7.3125 L 5.484375 -6.792969 L 1.515625 -5.566406 Z M 1.515625 -1.476562 "/></g></g></g><g fill="#8c52ff" fill-opacity="1"><g transform="translate(6.307405, 23.865223)"><g><path d="M 1.542969 0 L 7.730469 0 C 12.4375 0 15.5625 -2.894531 15.5625 -7.292969 C 15.5625 -11.664062 12.4375 -14.582031 7.730469 -14.582031 L 1.542969 -14.582031 Z M 5.75 -3.769531 L 5.75 -10.8125 L 7.605469 -10.8125 C 9.832031 -10.8125 11.269531 -9.4375 11.269531 -7.292969 C 11.269531 -5.144531 9.832031 -3.769531 7.605469 -3.769531 Z M 5.75 -3.769531 "/></g></g></g><g fill="#8c52ff" fill-opacity="1"><g transform="translate(22.574611, 23.865223)"><g><path d="M 6.875 0.3125 C 9.730469 0.3125 11.914062 -1.105469 12.894531 -3.5625 L 9.019531 -3.5625 C 8.582031 -3.042969 7.8125 -2.707031 6.957031 -2.707031 C 5.832031 -2.707031 4.894531 -3.3125 4.605469 -4.519531 L 13.101562 -4.519531 C 13.3125 -8.625 10.832031 -11.332031 6.894531 -11.332031 C 3.207031 -11.332031 0.644531 -8.957031 0.644531 -5.519531 C 0.644531 -2.0625 3.1875 0.3125 6.875 0.3125 Z M 4.625 -6.6875 C 4.957031 -7.75 5.832031 -8.332031 6.9375 -8.332031 C 8.144531 -8.332031 8.957031 -7.707031 9.292969 -6.6875 Z M 4.625 -6.6875 "/></g></g></g><g fill="#8c52ff" fill-opacity="1"><g transform="translate(36.300719, 23.865223)"><g><path d="M 5.75 0.3125 C 8.875 0.3125 10.726562 -1 10.726562 -3.207031 C 10.726562 -5.082031 9.4375 -6.230469 6.75 -6.75 C 5.082031 -7.0625 4.605469 -7.332031 4.605469 -7.875 C 4.605469 -8.355469 5 -8.625 5.582031 -8.625 C 6.3125 -8.625 6.730469 -8.25 6.769531 -7.582031 L 10.5625 -7.582031 C 10.417969 -10.019531 8.707031 -11.332031 5.625 -11.332031 C 2.480469 -11.332031 0.769531 -10.105469 0.769531 -7.875 C 0.769531 -6 1.980469 -4.917969 4.730469 -4.394531 C 6.1875 -4.105469 6.792969 -3.75 6.792969 -3.230469 C 6.792969 -2.75 6.417969 -2.457031 5.792969 -2.457031 C 5.0625 -2.457031 4.582031 -2.917969 4.582031 -3.582031 L 0.667969 -3.582031 C 0.667969 -1.230469 2.667969 0.3125 5.75 0.3125 Z M 5.75 0.3125 "/></g></g></g><g fill="#8c52ff" fill-opacity="1"><g transform="translate(47.735668, 23.865223)"><g><path d="M 1.394531 0 L 5.394531 0 L 5.394531 -15.414062 L 1.394531 -15.414062 Z M 1.394531 0 "/></g></g></g><g fill="#8c52ff" fill-opacity="1"><g transform="translate(54.525823, 23.865223)"><g><path d="M 5.0625 0.25 C 6.644531 0.25 7.980469 -0.269531 8.917969 -1.207031 L 9.355469 0 L 12.226562 0 L 12.226562 -6.417969 C 12.226562 -9.5625 10.25 -11.332031 6.707031 -11.332031 C 3.625 -11.332031 1.769531 -9.9375 1.4375 -7.394531 L 5.1875 -7.394531 C 5.292969 -8.042969 5.917969 -8.480469 6.730469 -8.480469 C 7.625 -8.480469 8.332031 -7.957031 8.332031 -7.230469 L 8.332031 -6.605469 L 4.625 -6.605469 C 2.355469 -6.605469 0.894531 -5.25 0.894531 -3.230469 C 0.894531 -1.082031 2.519531 0.25 5.0625 0.25 Z M 4.8125 -3.417969 C 4.8125 -4.042969 5.355469 -4.417969 6.207031 -4.417969 L 8.375 -4.417969 C 8.375 -3.207031 7.457031 -2.394531 6.25 -2.394531 C 5.394531 -2.394531 4.8125 -2.792969 4.8125 -3.417969 Z M 4.8125 -3.417969 "/></g></g></g><g fill="#8c52ff" fill-opacity="1"><g transform="translate(67.9395, 23.865223)"><g><path d="M 1.394531 0 L 5.394531 0 L 5.394531 -5.9375 C 5.394531 -7.269531 6.082031 -8.019531 7.1875 -8.019531 C 8.25 -8.019531 8.875 -7.332031 8.875 -6.042969 L 8.875 0 L 12.875 0 L 12.875 -6.457031 C 12.875 -9.4375 11.101562 -11.332031 8.269531 -11.332031 C 6.792969 -11.332031 5.5 -10.8125 4.6875 -9.894531 L 4.269531 -11.019531 L 1.394531 -11.019531 Z M 1.394531 0 "/></g></g></g><g fill="#8c52ff" fill-opacity="1"><g transform="translate(81.998862, 23.865223)"><g><path d="M 2.832031 0.269531 C 4.125 0.269531 5.042969 -0.644531 5.042969 -1.894531 C 5.042969 -3.144531 4.125 -4.0625 2.832031 -4.0625 C 1.519531 -4.0625 0.605469 -3.144531 0.605469 -1.894531 C 0.605469 -0.644531 1.519531 0.269531 2.832031 0.269531 Z M 2.832031 0.269531 "/></g></g></g><g fill="#ffffff" fill-opacity="1"><g transform="translate(87.643251, 23.865223)"><g/></g></g></svg>